<svg xmlns="http://www.w3.org/2000/svg" width="12.379" height="14.007" viewBox="0 0 12.379 14.007">
  <path id="Icon_awesome-user-graduate" data-name="Icon awesome-user-graduate" d="M8.113,8.142,5.69,10.565,3.266,8.142A3.406,3.406,0,0,0,0,11.541v.244A1.22,1.22,0,0,0,1.219,13H10.16a1.22,1.22,0,0,0,1.219-1.219v-.244a3.406,3.406,0,0,0-3.266-3.4ZM.345,2.026l.163.038V3.547A.587.587,0,0,0,.485,4.563l-.4,1.582c-.043.175.053.356.193.356H1.344c.14,0,.236-.18.193-.356l-.4-1.582a.587.587,0,0,0-.023-1.016V2.211l1.676.4A3.245,3.245,0,1,0,8.941,4.063a3.193,3.193,0,0,0-.356-1.448l2.446-.589a.4.4,0,0,0,0-.8L6.2.057a2.182,2.182,0,0,0-1.008,0L.345,1.223A.406.406,0,0,0,.345,2.026Z" transform="translate(0.5 0.503)" fill="none" stroke="#000" stroke-width="1"/>
</svg>
