<svg xmlns="http://www.w3.org/2000/svg" width="46" height="46" viewBox="0 0 46 46">
  <g id="Star_4" data-name="Star 4" fill="#ffd66c">
    <path d="M 35.25410079956055 43.60708618164063 C 35.17324066162109 43.60708618164063 35.09725952148438 43.5805549621582 35.02180862426758 43.52596664428711 L 24.07906913757324 35.60772705078125 C 23.76312065124512 35.37910461425781 23.38998031616211 35.25826644897461 23 35.25826644897461 C 22.61001968383789 35.25826644897461 22.23687934875488 35.37910461425781 21.92094039916992 35.60771560668945 L 10.97819042205811 43.52596664428711 C 10.90275001525879 43.58054351806641 10.82674980163574 43.60708618164063 10.74582958221436 43.60708618164063 C 10.62026023864746 43.60708618164063 10.49248027801514 43.54130554199219 10.41234016418457 43.4354133605957 C 10.33689022064209 43.335693359375 10.31719017028809 43.21940612792969 10.35379981994629 43.08974456787109 L 14.18659019470215 29.51539611816406 C 14.38733005523682 28.80437469482422 14.14531993865967 28.04544448852539 13.57005023956299 27.5819149017334 L 2.825340032577515 18.92399597167969 C 2.627660036087036 18.76471519470215 2.669260025024414 18.56115531921387 2.696320056915283 18.48102569580078 C 2.723380088806152 18.40090560913086 2.81370997428894 18.21380615234375 3.067480087280273 18.20698547363281 L 16.4857292175293 17.84625434875488 C 17.25466918945313 17.82558441162109 17.93596076965332 17.32181549072266 18.18103981018066 16.59267616271973 L 22.6178092956543 3.392945289611816 C 22.7011604309082 3.144975185394287 22.91284942626953 3.118205308914185 23 3.118205308914185 C 23.08713912963867 3.118205308914185 23.2988395690918 3.144975185394287 23.3821907043457 3.392945289611816 L 27.81896018981934 16.59267616271973 C 28.06403923034668 17.3217945098877 28.74533081054688 17.82557487487793 29.51424980163574 17.84625434875488 L 42.93251037597656 18.20698547363281 C 43.1862907409668 18.21380615234375 43.27663040161133 18.40090560913086 43.30369186401367 18.48102569580078 C 43.33074951171875 18.56115531921387 43.37234115600586 18.76470565795898 43.17465972900391 18.92399597167969 L 32.42993927001953 27.58192443847656 C 31.85467910766602 28.04544448852539 31.6126708984375 28.80437469482422 31.81340980529785 29.5153751373291 L 35.64619827270508 43.08975601196289 C 35.68280029296875 43.21935653686523 35.66310119628906 43.33562469482422 35.58765029907227 43.43533706665039 C 35.50749969482422 43.54126358032227 35.37968826293945 43.60707473754883 35.25410079956055 43.60708618164063 Z" stroke="none"/>
    <path d="M 23 4.511810302734375 L 18.86232948303223 16.82166481018066 C 18.52157020568848 17.83549499511719 17.57426071166992 18.53598594665527 16.50503921508789 18.56474494934082 L 3.944099426269531 18.90242767333984 L 14.02103042602539 27.02224540710449 C 14.82092094421387 27.66678619384766 15.15741920471191 28.72205543518066 14.8782901763916 29.71069526672363 L 11.2921257019043 42.4116096496582 L 21.49954032897949 35.02545547485352 C 21.9388599395752 34.70754623413086 22.45771026611328 34.53950500488281 23 34.53950500488281 C 23.54227066040039 34.53950500488281 24.06110954284668 34.70753479003906 24.50041961669922 35.02542495727539 L 34.70787811279297 42.41161727905273 L 31.1217098236084 29.7107048034668 C 30.84257125854492 28.72209548950195 31.17905044555664 27.66681480407715 31.97896003723145 27.02225494384766 L 42.05589294433594 18.90242767333984 L 29.49493026733398 18.56474494934082 C 28.42576026916504 18.53598594665527 27.47845077514648 17.83550453186035 27.13765907287598 16.82167434692383 L 23 4.511810302734375 M 22.99999618530273 2.399452209472656 C 23.44608306884766 2.399452209472656 23.89216995239258 2.654281616210938 24.06348037719727 3.163936614990234 L 28.5002498626709 16.36367607116699 C 28.65026092529297 16.80995559692383 29.06294059753418 17.11510467529297 29.5335807800293 17.12776565551758 L 42.95182800292969 17.48849487304688 C 43.99501800537109 17.51653480529785 44.4382209777832 18.82888603210449 43.62562942504883 19.48366546630859 L 32.88090133666992 28.1415843963623 C 32.53084945678711 28.42365455627441 32.38296127319336 28.8874454498291 32.50511932373047 29.3200855255127 L 36.33790969848633 42.89444351196289 C 36.62693786621094 43.91808700561523 35.46217727661133 44.73180389404297 34.60046005249023 44.10825347900391 L 23.6577205657959 36.19001388549805 C 23.26523017883301 35.906005859375 22.73476982116699 35.906005859375 22.3422794342041 36.19001388549805 L 11.39953994750977 44.10825347900391 C 10.53781509399414 44.73180389404297 9.373058319091797 43.91808319091797 9.662090301513672 42.89444351196289 L 13.49488067626953 29.3200855255127 C 13.61703109741211 28.8874454498291 13.46915054321289 28.42365455627441 13.11909103393555 28.1415843963623 L 2.374370574951172 19.48366546630859 C 1.561771392822266 18.82889556884766 2.004978179931641 17.51653480529785 3.048168182373047 17.48849487304688 L 16.46640968322754 17.12776565551758 C 16.93705940246582 17.11510467529297 17.34973907470703 16.80996513366699 17.49974060058594 16.36368560791016 L 21.93651962280273 3.163936614990234 C 22.10782432556152 2.654281616210938 22.55390930175781 2.399452209472656 22.99999618530273 2.399452209472656 Z" stroke="none" fill="#efb153"/>
  </g>
</svg>
