<svg id="Group_2" data-name="Group 2" xmlns="http://www.w3.org/2000/svg" width="30.056" height="30.693" viewBox="0 0 30.056 30.693">
  <path id="Path_1" data-name="Path 1" d="M34.776,17.137l-.577-.79a1.894,1.894,0,0,1-.019-2.2l.565-.8a1.888,1.888,0,0,0-.652-2.754l-.859-.464a1.892,1.892,0,0,1-.972-1.976l.163-.966a1.883,1.883,0,0,0-1.781-2.2l-.979-.044a1.884,1.884,0,0,1-1.731-1.361l-.27-.941a1.881,1.881,0,0,0-2.559-1.2l-.9.389a1.882,1.882,0,0,1-2.151-.477L21.4.628a1.888,1.888,0,0,0-2.829.019l-.64.74a1.89,1.89,0,0,1-2.139.508l-.9-.37a1.888,1.888,0,0,0-2.54,1.248l-.257.941a1.858,1.858,0,0,1-1.7,1.392l-.979.056a1.88,1.88,0,0,0-1.744,2.22l.176.96a1.883,1.883,0,0,1-.941,1.988l-.853.477a1.884,1.884,0,0,0-.608,2.76l.577.79a1.894,1.894,0,0,1,.019,2.2l-.565.8a1.888,1.888,0,0,0,.652,2.754l.859.464a1.892,1.892,0,0,1,.972,1.976l-.169.96a1.883,1.883,0,0,0,1.781,2.2l.979.044a1.884,1.884,0,0,1,1.731,1.361l.27.941a1.881,1.881,0,0,0,2.559,1.2l.9-.389a1.89,1.89,0,0,1,2.151.47l.652.728a1.888,1.888,0,0,0,2.829-.019l.64-.74A1.89,1.89,0,0,1,24.42,28.8l.9.37a1.888,1.888,0,0,0,2.54-1.248l.257-.941a1.9,1.9,0,0,1,1.712-1.386l.979-.056a1.88,1.88,0,0,0,1.744-2.22l-.176-.96a1.883,1.883,0,0,1,.941-1.988l.853-.477A1.882,1.882,0,0,0,34.776,17.137ZM20.111,25.26a9.9,9.9,0,1,1,9.9-9.9A9.9,9.9,0,0,1,20.111,25.26Z" transform="translate(-5.082 0)" fill="#9f007e"/>
  <path id="Path_2" data-name="Path 2" d="M177.045,192.484l-.878-.884a1.346,1.346,0,0,0-1.9-.006h0a1.346,1.346,0,0,0-.006,1.9l.878.884.979.979a1.308,1.308,0,0,0,1.85.006l.979-.972L182.358,191a1.346,1.346,0,0,0,.006-1.9h0a1.346,1.346,0,0,0-1.9-.006Z" transform="translate(-163.283 -176.864)" fill="#9f007e"/>
</svg>
