<svg xmlns="http://www.w3.org/2000/svg" width="363.427" height="311.104" viewBox="0 0 363.427 311.104">
  <g id="Group_315" data-name="Group 315" transform="translate(0)">
    <path id="Path_886" data-name="Path 886" d="M418.554,640.466c5.834-4.93,9.378-12.717,8.448-20.3s-6.685-14.551-14.152-16.161-15.978,2.847-18.246,10.14c-1.248-14.062-2.686-28.713-10.162-40.688-6.769-10.843-18.494-18.6-31.2-19.99s-26.086,3.854-34.011,13.884-9.865,24.61-4.315,36.125c4.089,8.482,11.622,14.8,19.514,19.931a125.946,125.946,0,0,0,86.139,18.844" transform="translate(-311.75 -332.609)" fill="#f2f2f2"/>
    <path id="Path_887" data-name="Path 887" d="M342.318,560a207.817,207.817,0,0,1,61.062,82.568c.582,1.427-1.735,2.049-2.311.637a205.68,205.68,0,0,0-60.446-81.51c-1.2-.974.508-2.661,1.695-1.695Z" transform="translate(-322.271 -334.999)" fill="#fff"/>
    <path id="Path_888" data-name="Path 888" d="M482.525,640.466c-5.834-4.93-9.378-12.717-8.448-20.3s6.685-14.551,14.152-16.161,15.978,2.847,18.245,10.14c1.248-14.062,2.686-28.713,10.162-40.688,6.769-10.843,18.494-18.6,31.2-19.99s26.086,3.854,34.011,13.884,9.865,24.61,4.315,36.125c-4.089,8.482-11.622,14.8-19.515,19.931a125.946,125.946,0,0,1-86.139,18.844" transform="translate(-371.691 -332.609)" fill="#f2f2f2"/>
    <path id="Path_889" data-name="Path 889" d="M589.332,560a207.816,207.816,0,0,0-61.062,82.568c-.582,1.427,1.735,2.049,2.311.637A205.5,205.5,0,0,1,591.027,561.7c1.2-.974-.508-2.661-1.695-1.695Z" transform="translate(-391.741 -334.998)" fill="#fff"/>
    <circle id="Ellipse_310" data-name="Ellipse 310" cx="19.543" cy="19.543" r="19.543" transform="translate(108.604 100.865)" fill="#f2f2f2"/>
    <path id="Path_890" data-name="Path 890" d="M388.615,287.388H523.257v7.366H405.8a52.587,52.587,0,0,0-52.587,52.587v83.691H338.482a2.456,2.456,0,0,1-2.456-2.455v-88.6a52.587,52.587,0,0,1,52.587-52.587Z" transform="translate(-320.723 -234.347)" fill="#f2f2f2"/>
    <path id="Path_891" data-name="Path 891" d="M460.527,626.647V514.75h32.781v111.9a2.84,2.84,0,0,1-2.837,2.837H463.364A2.84,2.84,0,0,1,460.527,626.647Z" transform="translate(-366.738 -318.379)" fill="#3f3d56"/>
    <path id="Path_892" data-name="Path 892" d="M325.027,425.873V334.885a54.7,54.7,0,0,1,54.634-54.635h138.9V429.025H328.179a3.156,3.156,0,0,1-3.152-3.152ZM517.3,281.511H379.661a53.434,53.434,0,0,0-53.373,53.373v90.989a1.893,1.893,0,0,0,1.891,1.891H517.3Z" transform="translate(-316.658 -231.709)" fill="#3f3d56"/>
    <path id="Path_893" data-name="Path 893" d="M479.546,333.743A11.36,11.36,0,0,1,468.2,322.4V241.074a1.893,1.893,0,0,0-1.891-1.891H422.179a3.156,3.156,0,0,1-3.152-3.152V206.4a3.156,3.156,0,0,1,3.152-3.152h65.562a3.156,3.156,0,0,1,3.152,3.152V322.4a11.36,11.36,0,0,1-11.347,11.347Z" transform="translate(-351.4 -203.25)" fill="#9f007e"/>
    <path id="Path_894" data-name="Path 894" d="M618.96,278.25h0a35.858,35.858,0,0,1,35.933,35.783V417.614H725.5a10.694,10.694,0,0,1,10.717,10.672H583.027V314.032A35.858,35.858,0,0,1,618.96,278.25Z" transform="translate(-412.014 -230.97)" fill="#3f3d56"/>
    <path id="Path_895" data-name="Path 895" d="M626.311,324.438l7.441,30.736L779.3,319.94l-7.44-30.736a2.294,2.294,0,0,0-1.486-1.636,2.265,2.265,0,0,0-.841-.127L685.4,243.879a2.321,2.321,0,0,0-2.935.706l-40.547,56.543L626.63,322.45a.324.324,0,0,0-.056.264A2.3,2.3,0,0,0,626.311,324.438Z" transform="translate(-427.987 -218.172)" fill="#fff"/>
    <path id="Path_896" data-name="Path 896" d="M626.761,322.713a.309.309,0,0,0,.128.2.353.353,0,0,0,.273.054.338.338,0,0,0,.188-.131l.052-.073.8-1.113,14.454-20.15,40.535-56.53a1.651,1.651,0,0,1,2.094-.5l83.481,43.225.749.389a.817.817,0,0,0,.093.033,1.012,1.012,0,0,1,.171-.016.324.324,0,0,0,.183-.154.331.331,0,0,0-.138-.447l-.1-.055-84.133-43.562a2.321,2.321,0,0,0-2.935.706L642.1,301.128,626.818,322.45a.324.324,0,0,0-.056.263Z" transform="translate(-428.175 -218.172)" fill="#3f3d56"/>
    <path id="Path_897" data-name="Path 897" d="M694.643,318.687l3.24.359,24.045,2.664,15.94,1.765.942.1L758.7,308.044l.762-.6,4.7-3.669,16.714-13.053.1-.917,5.945-53.656a2.808,2.808,0,0,0-2.477-3.1l-79.34-8.789a2.809,2.809,0,0,0-3.1,2.477l-4.192,37.847-2.326,20.983-2.08,18.773-.964,8.718-.281,2.525A2.81,2.81,0,0,0,694.643,318.687Z" transform="translate(-452.344 -211.012)" fill="#e6e6e6"/>
    <path id="Path_898" data-name="Path 898" d="M728.54,294.626l34.367,3.806,12.188,1.35a4.123,4.123,0,1,0,.908-8.2l-15.159-1.679-31.394-3.481a4.125,4.125,0,1,0-.91,8.2Z" transform="translate(-464.438 -233.982)" fill="#fff"/>
    <path id="Path_899" data-name="Path 899" d="M725.594,318.767c.089.016.177.032.268.04l39.9,4.42,6.661.739a4.124,4.124,0,0,0,.907-8.2l-9.631-1.066-31.6-3.5-5.318-.589a4.122,4.122,0,0,0-1.179,8.156Z" transform="translate(-463.449 -242.921)" fill="#fff"/>
    <path id="Path_900" data-name="Path 900" d="M720.078,341.282a4.122,4.122,0,0,0,3.077,1.97l16.352,1.811,29.123,3.226.006,0,.931.1,4.7-3.669a4.078,4.078,0,0,0,0-.838,4.132,4.132,0,0,0-3.648-3.671l-4.045-.449-16.048-1.776-11.547-1.281-14.916-1.653a4.123,4.123,0,0,0-3.983,6.228Z" transform="translate(-462.448 -251.955)" fill="#fff"/>
    <path id="Path_901" data-name="Path 901" d="M754.708,265.15l8.551.947,3.777.419,5.705.631a4.124,4.124,0,0,0,.907-8.2l-18.029-2a4.123,4.123,0,0,0-.911,8.2Z" transform="translate(-474.111 -223.089)" fill="#fff"/>
    <path id="Path_902" data-name="Path 902" d="M645.9,293.141l10.425,43.065,17.4,3.308,16.1,3.064,17.269,3.286,5.518,1.05a2.316,2.316,0,0,0,1.853-.449l4.427-3.457,2.8-2.189,19.891-15.536L728.931,273.04a2.776,2.776,0,0,0-.784-1.361,2.8,2.8,0,0,0-2.6-.7l-77.584,18.781a2.806,2.806,0,0,0-2.065,3.385Z" transform="translate(-435.221 -228.252)" fill="#9f007e"/>
    <path id="Path_903" data-name="Path 903" d="M683.8,351.081a4.127,4.127,0,0,0,4.978,3.037L734.3,343.1a4.129,4.129,0,0,0,3.037-4.978,1.324,1.324,0,0,0-.044-.156,4.122,4.122,0,0,0-4.933-2.882L686.833,346.1A4.127,4.127,0,0,0,683.8,351.081Z" transform="translate(-449.215 -251.932)" fill="#fff"/>
    <path id="Path_904" data-name="Path 904" d="M690.082,371.934l16.1,3.064,34.1-8.254a4.123,4.123,0,1,0-1.94-8.015l-45.524,11.02a4.093,4.093,0,0,0-2.362,1.583A4.145,4.145,0,0,0,690.082,371.934Z" transform="translate(-451.581 -260.672)" fill="#fff"/>
    <path id="Path_905" data-name="Path 905" d="M743.008,388.143l5.518,1.05a2.316,2.316,0,0,0,1.853-.449l4.427-3.457Z" transform="translate(-471.142 -270.53)" fill="#fff"/>
    <path id="Path_906" data-name="Path 906" d="M698.347,318.409a4.127,4.127,0,0,0,4.977,3.037l17.633-4.268a4.129,4.129,0,0,0,3.037-4.978,4.075,4.075,0,0,0-.76-1.567,4.126,4.126,0,0,0-4.218-1.47l-17.633,4.268a4.124,4.124,0,0,0-3.037,4.978Z" transform="translate(-454.592 -242.352)" fill="#fff"/>
    <path id="Path_907" data-name="Path 907" d="M682.583,358.186l17.272,3.287,5.516,1.051a2.325,2.325,0,0,0,1.852-.448l4.43-3.458-1.555.376-3.282,2.56a1.662,1.662,0,0,1-1.323.32l-4.085-.777-17.272-3.287ZM734.173,340.2l.168.695.766-.6Zm-51.591,17.991,17.272,3.287,5.516,1.051a2.325,2.325,0,0,0,1.852-.448l4.43-3.458-1.555.376-3.282,2.56a1.662,1.662,0,0,1-1.323.32l-4.085-.777-17.272-3.287Zm0,0,17.272,3.287,5.516,1.051a2.325,2.325,0,0,0,1.852-.448l4.43-3.458-1.555.376-3.282,2.56a1.662,1.662,0,0,1-1.323.32l-4.085-.777-17.272-3.287Zm-56.272-8.061,19.49,80.509a2.311,2.311,0,0,0,2.788,1.7l141.06-34.148a2.311,2.311,0,0,0,1.7-2.788l-19.49-80.509a2.294,2.294,0,0,0-1.486-1.636,2.265,2.265,0,0,0-.841-.127,2.181,2.181,0,0,0-.955.251,2.007,2.007,0,0,0-.383.238l-11.577,9.04L739.8,335.791l-5.633,4.4v0h0l-20.656,16.124-3.415,2.672-3.282,2.56a1.662,1.662,0,0,1-1.323.32l-4.085-.777-17.272-3.287-17.287-3.288-37.863-7.206a2.263,2.263,0,0,0-.976.021,2.314,2.314,0,0,0-1.127.653,2.6,2.6,0,0,0-.311.41,2.3,2.3,0,0,0-.263,1.725Zm56.272,8.061,17.272,3.287,5.516,1.051a2.325,2.325,0,0,0,1.852-.448l4.43-3.458-1.555.376-3.282,2.56a1.662,1.662,0,0,1-1.323.32l-4.085-.777-17.272-3.287Zm0,0,17.272,3.287,5.516,1.051a2.325,2.325,0,0,0,1.852-.448l4.43-3.458-1.555.376-3.282,2.56a1.662,1.662,0,0,1-1.323.32l-4.085-.777-17.272-3.287Zm0,0,17.272,3.287,5.516,1.051a2.325,2.325,0,0,0,1.852-.448l4.43-3.458-1.555.376-3.282,2.56a1.662,1.662,0,0,1-1.323.32l-4.085-.777-17.272-3.287Z" transform="translate(-427.987 -243.86)" fill="#fff"/>
    <path id="Path_908" data-name="Path 908" d="M682.583,358.186l17.272,3.287,5.516,1.051a2.325,2.325,0,0,0,1.852-.448l4.43-3.458-1.555.376-3.282,2.56a1.662,1.662,0,0,1-1.323.32l-4.085-.777-17.272-3.287ZM734.173,340.2l.168.695.766-.6Zm-51.591,17.991,17.272,3.287,5.516,1.051a2.325,2.325,0,0,0,1.852-.448l4.43-3.458-1.555.376-3.282,2.56a1.662,1.662,0,0,1-1.323.32l-4.085-.777-17.272-3.287Zm0,0,17.272,3.287,5.516,1.051a2.325,2.325,0,0,0,1.852-.448l4.43-3.458-1.555.376-3.282,2.56a1.662,1.662,0,0,1-1.323.32l-4.085-.777-17.272-3.287Zm-55.366-9.735.086.064c.014-.023.039-.045.058-.069a1.666,1.666,0,0,1,1.5-.484l37.626,7.158,16.093,3.067,17.272,3.287,5.516,1.051a2.326,2.326,0,0,0,1.852-.448l4.43-3.458-1.555.376-3.282,2.56a1.661,1.661,0,0,1-1.323.32l-4.085-.777-17.272-3.287-17.287-3.288-37.863-7.206a2.263,2.263,0,0,0-.976.021Zm-.905,1.675,19.49,80.509a2.311,2.311,0,0,0,2.788,1.7l141.06-34.148a2.311,2.311,0,0,0,1.7-2.788l-19.49-80.509a2.294,2.294,0,0,0-1.486-1.636,2.266,2.266,0,0,0-.841-.126,2.181,2.181,0,0,0-.954.251,2,2,0,0,0-.383.238l-11.577,9.04-16.813,13.134-5.632,4.4v0h0l-20.656,16.124-3.415,2.672-3.282,2.56a1.662,1.662,0,0,1-1.323.32l-4.085-.777-17.272-3.287-17.287-3.288-37.863-7.206a2.263,2.263,0,0,0-.976.021,2.314,2.314,0,0,0-1.127.653,2.6,2.6,0,0,0-.311.41,2.3,2.3,0,0,0-.263,1.725Zm.643-.156a1.638,1.638,0,0,1,.291-1.381.215.215,0,0,1,.057-.074c.014-.023.039-.045.058-.069a1.666,1.666,0,0,1,1.5-.484l37.626,7.158,16.093,3.067,17.272,3.287,5.516,1.051a2.326,2.326,0,0,0,1.852-.448l4.43-3.458,2.8-2.189,19.887-15.538.766-.6,4.694-3.667,16.717-13.055,12.086-9.438a1.642,1.642,0,0,1,.622-.3,1.259,1.259,0,0,1,.192-.032,1.012,1.012,0,0,1,.171-.016,1.688,1.688,0,0,1,.568.093,1.655,1.655,0,0,1,1.063,1.168l19.49,80.509a1.652,1.652,0,0,1-1.218,2L648.434,431.7a1.65,1.65,0,0,1-1.99-1.219Zm55.629,8.216,17.272,3.287,5.516,1.051a2.326,2.326,0,0,0,1.852-.448l4.43-3.458-1.555.376-3.282,2.56a1.661,1.661,0,0,1-1.323.32l-4.085-.777-17.272-3.287Zm0,0,17.272,3.287,5.516,1.051a2.326,2.326,0,0,0,1.852-.448l4.43-3.458-1.555.376-3.282,2.56a1.661,1.661,0,0,1-1.323.32l-4.085-.777-17.272-3.287Zm0,0,17.272,3.287,5.516,1.051a2.326,2.326,0,0,0,1.852-.448l4.43-3.458-1.555.376-3.282,2.56a1.661,1.661,0,0,1-1.323.32l-4.085-.777-17.272-3.287Z" transform="translate(-427.987 -243.86)" fill="#3f3d56"/>
    <path id="Path_909" data-name="Path 909" d="M827.045,416.733a5.124,5.124,0,0,1,3.77-6.179l17.8-4.31a5.118,5.118,0,0,1,2.409,9.949l-17.8,4.31a5.124,5.124,0,0,1-6.179-3.77Z" transform="translate(-502.149 -278.222)" fill="#9f007e"/>
    <circle id="Ellipse_311" data-name="Ellipse 311" cx="4.413" cy="4.413" r="4.413" transform="translate(123.733 114.733)" fill="#fff"/>
  </g>
</svg>
