<svg xmlns="http://www.w3.org/2000/svg" xmlns:xlink="http://www.w3.org/1999/xlink" width="30" height="30" viewBox="0 0 30 30">
  <defs>
    <clipPath id="clip-path">
      <rect id="Rectangle_16" data-name="Rectangle 16" width="30" height="30" transform="translate(1575 64)" fill="#2e2e2e" stroke="#707070" stroke-width="1"/>
    </clipPath>
  </defs>
  <g id="Mask_Group_9" data-name="Mask Group 9" transform="translate(-1575 -64)" clip-path="url(#clip-path)">
    <g id="Xnix_Line_Search_5" data-name="Xnix/Line/Search_5" transform="translate(1567.121 56.235)">
      <g id="Vector" transform="translate(9.413 9.413)">
        <path id="Vector-5" d="M3.4,20.169A11.885,11.885,0,0,1,.223,14.119,12.016,12.016,0,0,1,.883,7.294a11.772,11.772,0,0,1,4.273-5.3,11.429,11.429,0,0,1,12.892,0,11.77,11.77,0,0,1,4.273,5.3,12.014,12.014,0,0,1,.661,6.824,11.883,11.883,0,0,1-3.176,6.051,11.455,11.455,0,0,1-16.408,0Z" fill="none" stroke="#2e2e2e" stroke-linecap="round" stroke-linejoin="round" stroke-width="2.5" fill-rule="evenodd"/>
        <path id="Vector-6" d="M11.765,5.551A4.518,4.518,0,0,1,16.4,8.283m3.577,11.706,6.378,6.367" fill="none" stroke="#2e2e2e" stroke-linecap="round" stroke-linejoin="round" stroke-width="2.5" fill-rule="evenodd"/>
      </g>
    </g>
  </g>
</svg>
