<svg xmlns="http://www.w3.org/2000/svg" width="17.242" height="17.242" viewBox="0 0 17.242 17.242">
  <path id="Icon_metro-my-location" data-name="Icon metro-my-location" d="M12.477,9.342a3.135,3.135,0,1,0,3.135,3.135,3.134,3.134,0,0,0-3.135-3.135Zm7.006,2.351A7.049,7.049,0,0,0,13.261,5.47V3.856H11.693V5.47a7.049,7.049,0,0,0-6.223,6.223H3.856v1.567H5.471a7.049,7.049,0,0,0,6.223,6.223V21.1h1.567V19.483a7.049,7.049,0,0,0,6.223-6.223H21.1V11.693H19.483Zm-7.006,6.27a5.486,5.486,0,1,1,5.486-5.486A5.487,5.487,0,0,1,12.477,17.963Z" transform="translate(-3.856 -3.856)" fill="#828280"/>
</svg>
